<svg xmlns="http://www.w3.org/2000/svg" viewBox="0 0 24 24"><path fill="currentColor" fill-rule="evenodd" d="M18.8 13.64a7.11 7.11 0 0 1-.83 2l1.81 2.71-1.42 1.42L15.65 18a7.11 7.11 0 0 1-2 .83L13 22h-2l-.64-3.2a7.11 7.11 0 0 1-2-.83l-2.72 1.81-1.42-1.42L6 15.65a7.11 7.11 0 0 1-.83-2L2 13v-2l3.2-.64a7.11 7.11 0 0 1 .83-2L4.22 5.64l1.42-1.42L8.35 6a7.11 7.11 0 0 1 2-.83L11 2h2l.64 3.2a7.11 7.11 0 0 1 2 .83l2.71-1.81 1.42 1.42L18 8.35a7.11 7.11 0 0 1 .83 2L22 11v2l-3.2.64zM12 8a4 4 0 1 0 0 8 4 4 0 0 0 0-8z"/></svg>
