<svg xmlns="http://www.w3.org/2000/svg" viewBox="0 0 24 24"><path fill="currentColor" fill-rule="evenodd" d="M15.89 14a19.1 19.1 0 0 0 0-4h3.86c.16.64.25 1.31.25 2s-.09 1.36-.25 2h-3.86zm-1.56 5.65c.54-1.22.94-2.43 1.22-3.65h3.37c-1 1.73-2.64 3.06-4.59 3.65zM5.08 16h3.37c.28 1.22.68 2.43 1.22 3.65A8.005 8.005 0 0 1 5.08 16zM4 12c0-.69.09-1.36.25-2h3.86a19.1 19.1 0 0 0 0 4H4.25c-.16-.64-.25-1.31-.25-2zm5.67-7.65C9.13 5.57 8.73 6.78 8.45 8H5.08c1-1.73 2.64-3.06 4.59-3.65zM12 4.07c.67 1.32 1.17 2.63 1.5 3.93h-3c.33-1.3.83-2.61 1.5-3.93zm0 15.86c-.67-1.32-1.17-2.63-1.5-3.93h3c-.33 1.3-.83 2.61-1.5 3.93zM13.88 14h-3.76c-.18-1.33-.18-2.67 0-4h3.76c.18 1.33.18 2.67 0 4zm5.04-6h-3.37c-.28-1.22-.68-2.43-1.22-3.65 1.95.59 3.59 1.92 4.59 3.65zm2.88 2c-.14-.7-.36-1.37-.64-2-1.39-3.18-4.37-5.5-7.95-5.92h-.01C12.81 2.02 12.41 2 12 2c-.41 0-.81.02-1.2.08h-.01C7.21 2.5 4.23 4.82 2.84 8c-.28.63-.5 1.3-.64 2a10.048 10.048 0 0 0 0 4c.14.7.36 1.37.64 2 1.39 3.18 4.37 5.5 7.95 5.92h.01c.39.06.79.08 1.2.08.41 0 .81-.02 1.2-.08h.01c3.58-.42 6.56-2.74 7.95-5.92.28-.63.5-1.3.64-2a10.048 10.048 0 0 0 0-4z"/></svg>
