<svg viewBox="0 0 24 24" xmlns="http://www.w3.org/2000/svg" xmlns:xlink="http://www.w3.org/1999/xlink"><defs><rect id="a" width="20" height="20" rx="2"/></defs><g transform="translate(2 2)" fill="none" fill-rule="evenodd"><mask id="b" fill="#fff"><use xlink:href="#a"/></mask><use fill="#10277E" fill-rule="nonzero" xlink:href="#a"/><path fill="#FFF" fill-rule="nonzero" mask="url(#b)" d="M20 0h-2.856L10 7.137 2.856 0H0v2.857l7.144 7.137L0 17.143V20h2.856L10 12.852 17.144 20H20v-2.857l-7.144-7.149L20 2.857z"/><path fill="#ED1C24" fill-rule="nonzero" mask="url(#b)" d="M20 0h-1.433L10 8.571 1.433 0H0v1.423l8.567 8.571L0 18.566V20h1.433L10 11.429 18.567 20H20v-1.434l-8.567-8.572L20 1.423z"/><path fill="#FFF" fill-rule="nonzero" mask="url(#b)" d="M20 6.437h-7.844V0h-4.29v6.437H0v7.148h7.867V20h4.289v-6.415H20z"/><path fill="#ED1C24" fill-rule="nonzero" mask="url(#b)" d="M20 7.849h-8.567V0H8.567v7.849H0v4.291h8.567V20h2.866v-7.86H20z"/></g></svg>
