<svg viewBox="0 0 16 16" xmlns="http://www.w3.org/2000/svg"><path d="M8 0c4.418 0 8 3.558 8 7.947 0 4.39-3.582 7.947-8 7.947a8.01 8.01 0 0 1-3.54-.819l-2.719.922c-.037.013-.074-.02-.068-.061l.38-2.673A7.888 7.888 0 0 1 0 7.947v-.12l.002-.073V7.74C.06 4.914 1.61 2.45 3.905 1.09l.041.006A8.003 8.003 0 0 1 8 0zm4.006 6.953c-.895.029-1.525.787-1.496 1.803-.014.987.76 1.735 1.73 1.632.893-.095 1.473-.804 1.444-1.803-.029-.986-.727-1.663-1.678-1.632zm-4.086.335c-.467-.43-.982-.457-1.489-.142-.61.38-.838 1-.76 1.722.072.672.346 1.22 1.012 1.449.415.142.799.091 1.139-.2.088-.076.115-.062.178.022.128.172.33.223.522.153a.464.464 0 0 0 .31-.447c.005-.79.009-1.58-.001-2.371a.465.465 0 0 0-.576-.454c-.154.033-.244.147-.335.268zm1.785-1.686c-.275.003-.458.2-.463.505-.003.184 0 .368 0 .553V9.8c0 .247.142.459.33.51.315.083.607-.154.61-.504.003-.612 0-1.225 0-1.838 0-.619.003-1.238 0-1.857-.003-.314-.193-.513-.477-.51zm-5.752.348l-1 .003a.994.994 0 0 0-.276.035.408.408 0 0 0-.297.407c.002.19.116.349.304.401.089.025.184.033.276.033.405.004.81 0 1.215.004.043 0 .1-.03.134.037l-.1.14-1.733 2.328c-.144.193-.216.406-.112.643s.316.282.533.295c.173.011.348.005.522.005.605 0 1.209.004 1.813-.003.32-.004.492-.212.458-.524-.028-.247-.188-.38-.484-.383-.528-.005-1.056-.002-1.621-.002l.136-.19c.49-.656.98-1.312 1.469-1.97.142-.192.285-.385.374-.612.103-.26-.009-.507-.261-.6a1.012 1.012 0 0 0-.35-.045c-.667-.002-1.333-.002-2 0zm8.183 1.915a.56.56 0 0 1 .445.249c.214.302.213.81-.004 1.108a.594.594 0 0 1-.968-.007.932.932 0 0 1-.16-.555c.002-.491.284-.818.687-.795zm-4.845 0a.56.56 0 0 1 .444.252c.21.299.21.794 0 1.093a.593.593 0 0 1-.98.001.898.898 0 0 1-.156-.477c-.004-.56.282-.894.692-.869z" fill="currentColor" fill-rule="evenodd"/></svg>
