<svg xmlns="http://www.w3.org/2000/svg" fill="currentColor" viewBox="0 0 24 24"><path fill-rule="evenodd" d="M19.5 2a2.49 2.49 0 011.61.588c.545.459.89 1.145.89 1.912v15a2.5 2.5 0 01-2.5 2.5h-8A2.5 2.5 0 019 19.5V15a.5.5 0 111 0v4.5a1.5 1.5 0 001.5 1.5h8a1.5 1.5 0 001.5-1.5v-15A1.5 1.5 0 0019.5 3h-8A1.5 1.5 0 0010 4.5V9a.5.5 0 01-.5.5A.51.51 0 019 9V4.5A2.5 2.5 0 0111.5 2zM5.354 8.595A.49.49 0 016.13 9a.51.51 0 01-.13.34L3.74 11.5h10.77a.5.5 0 110 1H3.74L6 14.66v.01a.5.5 0 01-.37.83.51.51 0 01-.35-.15l-3.13-3A.49.49 0 012 12a.44.44 0 01.16-.35l3.13-3z"/></svg>
