<svg xmlns="http://www.w3.org/2000/svg" width="24" height="24"><path fill="#333" fill-rule="evenodd" d="M10.17 13.207a4.66 4.66 0 004.24-4.58 4.71 4.71 0 00-9.41 0 4.64 4.64 0 004.42 4.59c-4.69.26-8.42 3.65-8.42 7.78a1 1 0 001 1h16a1 1 0 001-1c0-4.25-3.95-7.72-8.83-7.79zM6 8.8a3.71 3.71 0 113.7 3.62A3.66 3.66 0 016 8.8zm4 5.397c4.39 0 8 3.07 8 6.8H2c0-3.73 3.61-6.8 8-6.8zM21.5 3a.49.49 0 01.35.147.48.48 0 010 .71l-4.23 4.24-.078.063a.5.5 0 01-.622-.063l-2.13-2.13-.053-.058a.48.48 0 01.053-.642.5.5 0 01.71 0l1.77 1.73 3.88-3.85.06-.051A.49.49 0 0121.5 3z"/></svg>
