<svg xmlns="http://www.w3.org/2000/svg" viewBox="0 0 20 20" fill="currentColor"><path fill="#FFF" fill-rule="evenodd" d="M8.33 3.44a3.925 3.925 0 0 1 3.92 3.743 3.883 3.883 0 0 1-3.658 3.834c4.016.116 7.241 2.975 7.241 6.483v.833h-15V17.5c0-3.508 3.225-6.367 7.242-6.483a3.883 3.883 0 0 1-3.667-3.834A3.925 3.925 0 0 1 8.33 3.44zM15.416.832c.23 0 .416.187.416.417v2.083h2.084a.417.417 0 0 1 0 .834h-2.084V6.25l-.006.075A.417.417 0 0 1 15 6.25V4.167h-2.083a.417.417 0 1 1 0-.834H15V1.25l.007-.075a.417.417 0 0 1 .41-.342z"/></svg>
