<svg viewBox="0 0 24 24" xmlns="http://www.w3.org/2000/svg"><path d="M20.23 3.5h-5.07v-.96a1 1 0 00-1-1H10.2a1 1 0 00-1 1v.92H4.1a1.43 1.43 0 00-1.43 1.48v1.12A1.43 1.43 0 004.1 7.5h1.07v12a2.5 2.5 0 002.5 2.5h9a2.51 2.51 0 002.51-2.5v-12h1.06a1.44 1.44 0 001.44-1.44V4.94a1.44 1.44 0 00-1.45-1.44zm-10.06 0v-1h4v.92l-4 .08zm8 16.06A1.51 1.51 0 0116.66 21h-9a1.5 1.5 0 01-1.5-1.5v-12h12l.01 12.06zm2.5-13.46a.44.44 0 01-.44.44H4.1a.44.44 0 01-.43-.44V4.94c0-.24.19-.435.43-.44h16.13a.44.44 0 01.44.44V6.1z" fill="#333" fill-rule="evenodd"/></svg>
