<svg xmlns="http://www.w3.org/2000/svg" viewBox="0 0 20 20" fill="currentColor"><path fill-rule="evenodd" d="M8.33 3.44a3.925 3.925 0 0 1 3.92 3.743 3.883 3.883 0 0 1-3.658 3.834c4.016.116 7.241 2.975 7.241 6.483v.833h-15V17.5c0-3.508 3.225-6.367 7.242-6.483a3.883 3.883 0 0 1-3.667-3.834A3.925 3.925 0 0 1 8.33 3.44zm9.587-.938c.11 0 .215.045.291.123a.4.4 0 0 1 0 .592L14.683 6.75l-.065.052a.417.417 0 0 1-.518-.052l-1.775-1.775-.054-.062a.4.4 0 0 1 .054-.521.417.417 0 0 1 .592 0l1.475 1.441 3.233-3.208.063-.052a.408.408 0 0 1 .229-.07z"/></svg>
