<svg fill="currentColor" xmlns="http://www.w3.org/2000/svg" viewBox="0 0 24 24"><path d="M20 12.09V5.46A4.22 4.22 0 0 0 16.07 1H7.91A4.22 4.22 0 0 0 4 5.46V20.6A1.33 1.33 0 0 0 5.25 22a1.14 1.14 0 0 0 .75-.32l3.46-3.39 1.79-1.75.05-.05a1 1 0 0 1 .67-.3 1.05 1.05 0 0 1 .77.37l1.33 1.34L18 21.68a1.18 1.18 0 0 0 .78.32A1.32 1.32 0 0 0 20 20.6v-8.51zm-1.23 8.72a.27.27 0 0 1-.12 0L12.78 15a1 1 0 0 0-.76-.37 1 1 0 0 0-.68.3l-.05.05-5.92 5.79a.21.21 0 0 1-.11 0 .26.26 0 0 1-.26-.19V5.46a3.14 3.14 0 0 1 2.91-3.32h8.16A3.14 3.14 0 0 1 19 5.46v15.18a.23.23 0 0 1-.24.17z"/></svg>
