<svg fill="currenColor" viewBox="0 0 24 24" xmlns="http://www.w3.org/2000/svg"><path d="M23.897 11.898a8.208 8.208 0 0 1-.917 2.664c-.215.392-1.267 1.886-1.59 2.28-1.773 2.164-4.743 4.662-9.71 7.09a.655.655 0 0 1-.935-.668l.25-2.282a.659.659 0 0 0-.579-.73C4.538 19.627 0 15.574 0 10.666 0 5.328 5.371 1 11.997 1c6.438 0 11.692 4.088 11.983 9.218.009.149.032.624.012.945-.013.194-.04.441-.095.735zm-9.8-3.27v2.898s-2.481-3.273-2.52-3.316A.615.615 0 0 0 11.09 8c-.338.013-.597.312-.597.654v4.718c0 .347.278.628.622.628a.625.625 0 0 0 .621-.628v-2.88s2.52 3.3 2.556 3.336c.11.105.258.17.42.172.346.003.628-.306.628-.654V8.628A.625.625 0 0 0 14.718 8a.625.625 0 0 0-.62.628zm5.903 0A.625.625 0 0 0 19.379 8h-2.486a.625.625 0 0 0-.621.628v4.744c0 .347.278.628.621.628h2.486a.625.625 0 0 0 .621-.628.625.625 0 0 0-.621-.629h-1.864v-1.115h1.864A.625.625 0 0 0 20 11a.625.625 0 0 0-.621-.628h-1.864V9.256h1.864A.625.625 0 0 0 20 8.628zM9.076 14c.268 0 .485-.22.485-.491V8.491A.488.488 0 0 0 9.076 8h-.272a.488.488 0 0 0-.486.491v5.018c0 .271.218.491.486.491h.272zm-3.833-1.257V8.628A.625.625 0 0 0 4.62 8 .625.625 0 0 0 4 8.628v4.744c0 .347.278.628.621.628h2.486a.625.625 0 0 0 .621-.628.625.625 0 0 0-.621-.629H5.243z" fill="currentColor" fill-rule="evenodd"/></svg>
