<svg fill="currentColor" xmlns="http://www.w3.org/2000/svg"><path d="M18.27 15.11a.16.16 0 0 1-.15-.16V8.12a6.21 6.21 0 0 0-4.22-5.9A10.08 10.08 0 0 0 12 2a6.8 6.8 0 0 0-1.88.21 6.21 6.21 0 0 0-4.24 5.91V15a.16.16 0 0 1-.15.16 1.75 1.75 0 0 0 0 3.5h3.62a2.66 2.66 0 0 0 5.3 0h3.62a1.75 1.75 0 0 0 0-3.5zm-5.39 4.69h-.05a.68.68 0 0 1-.21.1H12.33a1.83 1.83 0 0 1-.66 0H11.38a.68.68 0 0 1-.21-.1h-.05a1.75 1.75 0 0 1-.82-1.19h3.4a1.75 1.75 0 0 1-.82 1.19zm5.39-2.15H5.73a.79.79 0 0 1-.79-.79.79.79 0 0 1 .79-.8A1.1 1.1 0 0 0 6.82 15V8.12a5.25 5.25 0 0 1 3.6-5 7.39 7.39 0 0 1 3.12 0 5.24 5.24 0 0 1 3.64 5V15a1.1 1.1 0 0 0 1.09 1.11.79.79 0 0 1 .79.8.79.79 0 0 1-.79.74z"/></svg>
