<svg fill="currentColor" viewBox="0 0 24 24" xmlns="http://www.w3.org/2000/svg"><path d="M20.413 5.178c-1.035-1.082-2.456-1.678-4-1.678a5.154 5.154 0 0 0-3.143 1.045c-.47.35-.895.778-1.27 1.278a6.3 6.3 0 0 0-1.27-1.278A5.154 5.154 0 0 0 7.586 3.5c-1.544 0-2.965.596-4 1.678C2.563 6.247 2 7.708 2 9.29c0 1.63.63 3.121 1.984 4.694 1.21 1.408 2.95 2.836 4.965 4.49.688.565 1.468 1.206 2.278 1.888.214.18.488.28.773.28.285 0 .56-.1.773-.28.81-.682 1.59-1.323 2.278-1.888 2.015-1.654 3.755-3.082 4.966-4.49C21.37 12.412 22 10.92 22 9.291c0-1.583-.564-3.044-1.587-4.113z" fill-rule="evenodd"/></svg>
