<svg fill="currentColor" xmlns="http://www.w3.org/2000/svg" viewBox="0 0 24 24"><title>icon-WakuNews</title><path d="M20,12.09V5.46A4.22,4.22,0,0,0,16.07,1H7.91A4.22,4.22,0,0,0,4,5.46v7.12c0,.06,0,.11,0,.17V20.6A1.33,1.33,0,0,0,5.25,22,1.14,1.14,0,0,0,6,21.68H6l3.46-3.39v0l1.79-1.75.05-.05h0a1,1,0,0,1,.67-.3,1.05,1.05,0,0,1,.77.37l1.33,1.34h0L18,21.68h0a1.18,1.18,0,0,0,.78.32A1.32,1.32,0,0,0,20,20.6V12.09Zm-1.23,8.72a.27.27,0,0,1-.12,0L12.78,15a1,1,0,0,0-.76-.37,1,1,0,0,0-.68.3h0l-.05.05L5.37,20.77a.21.21,0,0,1-.11,0A.26.26,0,0,1,5,20.58L5,13V6.3H5V5.46A3.14,3.14,0,0,1,7.91,2.14h8.16A3.14,3.14,0,0,1,19,5.46v7.12h0v2.94l0,0v5.12A.23.23,0,0,1,18.76,20.81Z" fill="currentColor"/></svg>
