<svg xmlns="http://www.w3.org/2000/svg" viewBox="0 0 110 32"><g fill="none" fill-rule="evenodd"><path fill="#F4364C" d="M30.041 7.961a17.953 17.953 0 0 0-.686-.121c.13-.457.318-1.013 0-1.442-.317-.43-.914-.428-1.387-.494a11.45 11.45 0 0 0-3.522.048c-.988.17-1.93.457-2.725 1.097-.843.674-1.438 1.65-1.908 2.606a12.03 12.03 0 0 0-1.093 3.602c-1.04-.423-2.098-.804-3.147-1.204a10.01 10.01 0 0 1-2.743-1.568c-1.054-.855-2.192-1.989-2.398-3.388a6.171 6.171 0 0 1 .178-2.144c.182-.833.47-1.64.857-2.4.394.254.812.748 1.324.633.548-.12.665-.795.884-1.23a10.57 10.57 0 0 1 2.154 1.91c.617.71 1.158 1.473 1.257 2.436.084.827-.126 1.707-.364 2.493-.272.9-.669 1.759-1.18 2.549l1.432.542c.555-.914.982-1.9 1.268-2.93a7.785 7.785 0 0 0 .345-2.807c-.116-1.143-.653-2.078-1.371-2.972-.7-.873-1.52-1.644-2.434-2.29-.396-.279-.899-.713-1.417-.658-.581.068-.819.608-1.045 1.076-.407-.272-.866-.622-1.371-.439-.48.176-.682.734-.892 1.14A11.465 11.465 0 0 0 9.03 5.258c-.167 1.038-.2 2.082.176 3.081.374 1 1.142 1.909 1.931 2.663.447.423.927.809 1.435 1.154a7.05 7.05 0 0 0 1.623.94c-.685.914-1.442 1.783-2.162 2.672a10.15 10.15 0 0 1-2.382 2.126c-1.124.724-2.567 1.435-3.94 1.165a6.4 6.4 0 0 1-1.829-.775 10.091 10.091 0 0 1-2.121-1.597c.368-.297.967-.537 1.013-1.07.045-.533-.549-.88-.894-1.216a10.558 10.558 0 0 1 2.571-1.495c.846-.347 1.699-.603 2.615-.407.791.172 1.548.627 2.208 1.081a10.146 10.146 0 0 1 2.112 1.955l.958-1.198a11.657 11.657 0 0 0-2.439-2.14 7.632 7.632 0 0 0-2.617-1.19c-1.097-.229-2.124.011-3.152.397a11.886 11.886 0 0 0-2.972 1.644c-.377.288-.92.62-1.019 1.124-.112.574.33.956.702 1.317-.389.304-.846.63-.846 1.175.011.503.478.866.81 1.188.82.799 1.757 1.47 2.776 1.994.89.457 1.806.788 2.819.779 1.142 0 2.258-.473 3.25-1.001a11.2 11.2 0 0 0 1.652-1.068c.474-.37.876-.802 1.322-1.197.6.971 1.243 1.92 1.867 2.877a9.842 9.842 0 0 1 1.275 2.835c.364 1.35.622 3.012-.128 4.276a6.544 6.544 0 0 1-1.259 1.433 10.096 10.096 0 0 1-2.174 1.502c-.157-.411-.212-1.022-.628-1.257-.528-.302-1.056.208-1.507.439a10.114 10.114 0 0 1-.633-4.286c.128-1.063.819-1.858 1.587-2.542a10.057 10.057 0 0 1 3.04-1.858l-.83-1.284a11.58 11.58 0 0 0-2.85 1.712 7.44 7.44 0 0 0-1.904 2.11c-.508.93-.618 1.935-.574 2.97.047 1.155.261 2.297.635 3.39.158.458.309 1.104.768 1.358.512.286 1.008-.018 1.468-.256.176.457.336.997.857 1.157.521.16.994-.19 1.412-.412a11.554 11.554 0 0 0 2.823-2.112 5.85 5.85 0 0 0 1.543-2.439c.318-1.088.206-2.285 0-3.392a10.133 10.133 0 0 0-1.214-3.428l3.683-.976a9.305 9.305 0 0 1 4.66.062c.675.14 1.303.448 1.829.893a5.18 5.18 0 0 1 1.054 1.539c.45.91.758 1.883.914 2.886-.457.028-1.097-.125-1.442.261-.346.386-.074 1.04 0 1.515-1.03.048-2.061-.06-3.059-.32-.811-.21-1.6-.48-2.18-1.101-.58-.622-.94-1.452-1.219-2.236a10.286 10.286 0 0 1-.571-2.813l-1.477.397c.093 1.103.343 2.187.743 3.219.348.891.784 1.796 1.456 2.489.739.765 1.655 1.16 2.663 1.444 1.101.31 2.242.457 3.385.44.492 0 1.18.052 1.552-.332.373-.384.272-.951.183-1.456.478-.023 1.033 0 1.351-.425.318-.426.158-.93.082-1.372a11.502 11.502 0 0 0-1.129-3.408c-.457-.878-1.008-1.675-1.828-2.244-.915-.627-2.032-.899-3.109-1.059a11.506 11.506 0 0 0-1.922-.119 7.98 7.98 0 0 0-1.865.192c.048-1.266.12-2.532.198-3.796a9.73 9.73 0 0 1 1.49-4.389 4.142 4.142 0 0 1 1.411-1.49 5.358 5.358 0 0 1 1.95-.565 9.982 9.982 0 0 1 2.905.03c-.121.457-.476 1.036-.176 1.49.3.455.962.36 1.424.428a10.057 10.057 0 0 1-2.007 3.835c-.704.784-1.749 1.022-2.743 1.125a9.908 9.908 0 0 1-3.575-.286l-.089 1.534c1.03.242 2.088.34 3.145.295a8 8 0 0 0 2.695-.5c1.936-.803 3.081-2.895 3.758-4.776.286-.76.923-2.301-.302-2.6zM18.446 18.002l-3.07.823-1.728-2.665 1.998-2.47 2.971 1.142-.171 3.17z"/><path fill="#1F2833" fill-rule="nonzero" d="M74.437 22.272a1.662 1.662 0 0 1-.915-1.232c-.075-.597 0-6.49-.04-7.822-.02-.647-.34-4.107-3.54-5.122a8.526 8.526 0 0 0-3.565-.439 9.143 9.143 0 0 0-4.087 1.385c-.407.229-.39.435-.169.98l.686 1.498c.12.258.424.375.686.263.843-.375 2.146-.807 3.067-.846a5.257 5.257 0 0 1 2.167.334c.615.244 1.241.704.848 1.666a4.162 4.162 0 0 1-1.433 1.337c-.899.567-1.916.915-2.873 1.372-1.28.615-2.94 1.143-3.747 2.375a4.54 4.54 0 0 0-.704 2.468c0 3.054 2.213 4.094 2.787 4.304 1.213.457 3.936.416 5.529 0 .8-.162 1.532-.56 2.103-1.143.4.652 1.275 1.177 1.757 1.415.245.118.54.016.659-.228l1.019-1.859a.567.567 0 0 0-.235-.706zm-4.517-2.843c-.025 1.538-1.1 2.057-2.514 2.427a6.414 6.414 0 0 1-2.096.1c-1.111-.228-1.333-1.126-1.031-2.098.446-.946 1.19-1.044 1.908-1.371 1.998-.885 2.195-.914 3.507-1.842.114-.083.228 0 .228.141l-.002 2.643zm-11.723.4c-.06 3.579-3.831 5.325-6.533 5.282a7.506 7.506 0 0 1-4.967-1.628c-2.148 1.751-4.692 1.628-4.985 1.628-3.065-.069-6.53-1.877-6.53-5.424V8.117a.519.519 0 0 1 .52-.52h2.515a.519.519 0 0 1 .521.52l.019 11.257c0 .848.557 1.563 1.41 1.988a3.71 3.71 0 0 0 1.67.382 3.787 3.787 0 0 0 1.6-.347c.88-.419 1.475-1.143 1.489-1.996l-.019-11.289a.517.517 0 0 1 .52-.519h2.514a.519.519 0 0 1 .52.519s-.034 11.113-.024 11.2c-.021.39.146 1.424 1.414 2.057a3.717 3.717 0 0 0 1.676.384 3.66 3.66 0 0 0 1.906-.512c.738-.441 1.196-1.106 1.196-1.86V8.117a.519.519 0 0 1 .52-.52h2.515a.517.517 0 0 1 .519.52l.014 11.712zm29.863-3.744a.229.229 0 0 0-.044.228l3.346 8.103a.521.521 0 0 1-.487.706h-2.688a.521.521 0 0 1-.486-.331L84.8 17.879a.229.229 0 0 0-.297-.114c-.887.406-2.286.598-3.401.786a.178.178 0 0 0-.156.199v5.849a.519.519 0 0 1-.52.519H77.91a.521.521 0 0 1-.521-.521V2.725a.437.437 0 0 1 .418-.44l2.743.012a.395.395 0 0 1 .393.425v12.055a.21.21 0 0 0 .24.229l.25-.041c4.459-.732 5.894-3.347 6.459-7.004a.439.439 0 0 1 .43-.368h2.626a.437.437 0 0 1 .434.476c-.428 4.594-2.81 7.474-3.324 8.016zm19.289-7.995s-.016 11.819-.021 11.988c-.06 3.076-3.458 5.028-6.656 5.028-3.753-.119-6.629-2.15-6.629-5.378V8.089a.521.521 0 0 1 .522-.519h2.514c.287 0 .52.232.521.52v11.254c0 1.326 1.383 2.402 3.09 2.402 1.708 0 3.081-1.058 3.095-2.37V8.089a.52.52 0 0 1 .519-.519h2.514a.522.522 0 0 1 .53.52z"/></g></svg>
